<svg width="101" height="100" viewBox="0 0 101 100" fill="none" xmlns="http://www.w3.org/2000/svg">
<path d="M55.3852 70.5488L66.7433 89.4505C67.2104 90.228 67.8711 90.8715 68.6612 91.3183C69.4513 91.7651 70.3438 92 71.2518 92L89.5138 92C91.6415 92 92.8869 89.6096 91.6678 87.8689L73.386 61.7895C68.503 66.3455 62.2924 69.4726 55.3852 70.5488ZM10.6592 92L28.9212 92C30.768 92 32.48 91.032 33.4297 89.4505L44.7878 70.5488C37.8806 69.4726 31.67 66.3455 26.787 61.7912L8.50519 87.8689C7.28607 89.6096 8.53147 92 10.6592 92ZM50.0865 65.75C66.0566 65.75 79.0035 52.8219 79.0035 36.875C79.0035 20.9281 66.0566 7.99999 50.0865 8C34.1164 8 21.1695 20.9281 21.1695 36.875C21.1695 52.8219 34.1164 65.75 50.0865 65.75ZM34.8854 39.9495L41.1173 33.8858L39.6435 25.3184C39.3806 23.7828 41.0006 22.6098 42.3791 23.3349L50.0865 27.3791L57.7922 23.3349C59.1723 22.6048 60.7907 23.7844 60.5278 25.3184L59.054 33.8858L65.286 39.9495C66.4065 41.0389 65.7871 42.9404 64.2427 43.1635L55.6284 44.417L51.7788 52.2132C51.4321 52.9154 50.7618 53.2616 50.0898 53.2616C49.4145 53.2616 48.7392 52.9105 48.3926 52.2132L44.543 44.417L35.9287 43.1635C34.3842 42.9404 33.7648 41.0389 34.8854 39.9495Z" fill="#EA5F92"/>
</svg>
