<svg width="101" height="100" viewBox="0 0 101 100" fill="none" xmlns="http://www.w3.org/2000/svg">
<g clip-path="url(#clip0_33_345)">
<path d="M12.5423 56.2498L9.41281 49.9998H31.3196L28.8159 43.7498H8.36963L5.2401 37.4998H37.7873L35.2836 31.2498H4.65592L1.06738 24.9998H16.7151C16.7151 22.7897 17.5943 20.6701 19.1594 19.1073C20.7245 17.5445 22.8471 16.6665 25.0605 16.6665H75.1331V33.3332H87.6512L100.169 49.9998V70.8332H91.8239C91.8239 74.1484 90.5051 77.3278 88.1574 79.672C85.8098 82.0162 82.6258 83.3332 79.3058 83.3332C75.9858 83.3332 72.8017 82.0162 70.4541 79.672C68.1065 77.3278 66.7876 74.1484 66.7876 70.8332H50.0968C50.0968 74.1484 48.7779 77.3278 46.4303 79.672C44.0827 82.0162 40.8987 83.3332 37.5786 83.3332C34.2586 83.3332 31.0746 82.0162 28.727 79.672C26.3794 77.3278 25.0605 74.1484 25.0605 70.8332H16.7151V56.2498H12.5423ZM79.3058 77.0832C80.9658 77.0832 82.5578 76.4247 83.7316 75.2526C84.9054 74.0805 85.5648 72.4908 85.5648 70.8332C85.5648 69.1756 84.9054 67.5859 83.7316 66.4137C82.5578 65.2416 80.9658 64.5832 79.3058 64.5832C77.6458 64.5832 76.0537 65.2416 74.8799 66.4137C73.7061 67.5859 73.0467 69.1756 73.0467 70.8332C73.0467 72.4908 73.7061 74.0805 74.8799 75.2526C76.0537 76.4247 77.6458 77.0832 79.3058 77.0832ZM85.5648 39.5832H75.1331V49.9998H93.7434L85.5648 39.5832ZM37.5786 77.0832C39.2386 77.0832 40.8307 76.4247 42.0045 75.2526C43.1783 74.0805 43.8377 72.4908 43.8377 70.8332C43.8377 69.1756 43.1783 67.5859 42.0045 66.4137C40.8307 65.2416 39.2386 64.5832 37.5786 64.5832C35.9186 64.5832 34.3266 65.2416 33.1528 66.4137C31.979 67.5859 31.3196 69.1756 31.3196 70.8332C31.3196 72.4908 31.979 74.0805 33.1528 75.2526C34.3266 76.4247 35.9186 77.0832 37.5786 77.0832Z" fill="#EA5F92"/>
</g>
<defs>
<clipPath id="clip0_33_345">
<rect width="100.145" height="100" fill="white" transform="translate(0.0244141)"/>
</clipPath>
</defs>
</svg>
