<svg width="101" height="100" viewBox="0 0 101 100" fill="none" xmlns="http://www.w3.org/2000/svg">
<path d="M38.3472 8.04167C30.433 8.00001 22.7282 15.5833 26.2456 25H12.9715C10.7504 25 8.62019 25.878 7.04961 27.4408C5.47902 29.0036 4.59668 31.1232 4.59668 33.3333V41.6667C4.59668 42.7717 5.03785 43.8316 5.82314 44.613C6.60843 45.3944 7.67352 45.8333 8.78409 45.8333H46.4707V33.3333H54.8456V45.8333H92.5322C93.6428 45.8333 94.7079 45.3944 95.4932 44.613C96.2785 43.8316 96.7196 42.7717 96.7196 41.6667V33.3333C96.7196 31.1232 95.8373 29.0036 94.2667 27.4408C92.6961 25.878 90.5659 25 88.3448 25H75.0707C79.97 11.375 61.5454 1.75001 53.045 13.5L50.6581 16.6667L48.2713 13.4167C45.6333 9.70834 41.9902 8.08334 38.3472 8.04167ZM38.0959 16.6667C41.8227 16.6667 43.7071 21.1667 41.069 23.7917C38.4309 26.4167 33.9085 24.5417 33.9085 20.8333C33.9085 19.7283 34.3497 18.6685 35.135 17.8871C35.9203 17.1057 36.9854 16.6667 38.0959 16.6667ZM63.2204 16.6667C66.9472 16.6667 68.8315 21.1667 66.1934 23.7917C63.5554 26.4167 59.033 24.5417 59.033 20.8333C59.033 19.7283 59.4741 18.6685 60.2594 17.8871C61.0447 17.1057 62.1098 16.6667 63.2204 16.6667ZM8.78409 50V83.3334C8.78409 85.5435 9.66643 87.6631 11.237 89.2259C12.8076 90.7887 14.9378 91.6667 17.1589 91.6667H84.1574C86.3785 91.6667 88.5087 90.7887 90.0793 89.2259C91.6499 87.6631 92.5322 85.5435 92.5322 83.3334V50H54.8456V83.3334H46.4707V50H8.78409Z" fill="#EA5F92"/>
</svg>
