<svg width="101" height="100" viewBox="0 0 101 100" fill="none" xmlns="http://www.w3.org/2000/svg">
<path d="M29.3743 20.8333C24.5787 20.8301 19.9283 22.4768 16.206 25.4961C12.4837 28.5154 9.91672 32.723 8.93706 37.4107C7.9574 42.0985 8.62491 46.9801 10.8272 51.2339C13.0296 55.4878 16.6322 58.8542 21.0289 60.7666V71.8749H79.4469V60.7666C84.084 58.7459 87.828 55.1118 89.9822 50.5406C92.1364 45.9693 92.5541 40.7722 91.1575 35.9164C89.7609 31.0606 86.6452 26.8768 82.3901 24.1436C78.135 21.4104 73.0304 20.3139 68.0262 21.0583C66.7643 17.3471 64.3701 14.1237 61.1796 11.841C57.9892 9.55816 54.1628 8.33057 50.2379 8.33057C46.3129 8.33057 42.4866 9.55816 39.2961 11.841C36.1057 14.1237 33.7114 17.3471 32.4496 21.0583C31.4314 20.9082 30.4035 20.833 29.3743 20.8333ZM79.4385 78.1249H21.0372C21.079 83.9458 21.3752 87.1333 23.4741 89.2249C25.9193 91.6666 29.85 91.6666 37.7197 91.6666H62.756C70.6258 91.6666 74.5565 91.6666 77.0017 89.2249C79.1005 87.1333 79.3968 83.9458 79.4385 78.1249Z" fill="#EA5F92"/>
</svg>
